<?xml version="1.0" standalone="no"?>
<!DOCTYPE svg PUBLIC "-//W3C//DTD SVG 20010904//EN"
 "http://www.w3.org/TR/2001/REC-SVG-20010904/DTD/svg10.dtd">
<svg version="1.0" xmlns="http://www.w3.org/2000/svg"
 width="320.000000pt" height="400.000000pt" viewBox="0 0 320.000000 400.000000"
 preserveAspectRatio="xMidYMid meet">
<metadata>
Created by potrace 1.15, written by Peter Selinger 2001-2017
</metadata>
<g transform="translate(0.000000,400.000000) scale(0.100000,-0.100000)"
fill="#000000" stroke="none">
<path d="M1435 3993 c-27 -2 -87 -8 -132 -14 -77 -10 -101 -21 -70 -32 6 -2
-9 -8 -35 -12 -27 -4 -48 -11 -48 -15 0 -8 70 2 175 24 l65 14 25 -30 c13 -16
28 -35 32 -42 5 -7 40 -33 78 -57 86 -53 165 -110 183 -132 8 -9 25 -74 40
-144 l25 -128 -68 -110 c-68 -110 -69 -110 -248 -254 l-180 -144 -19 23 c-30
37 -33 68 -9 110 15 27 21 55 21 101 0 78 8 92 43 84 19 -5 39 0 73 20 56 33
52 44 -6 15 -35 -18 -47 -20 -67 -11 -22 10 -23 13 -10 38 8 16 22 53 31 83
13 47 23 60 66 90 54 38 69 62 20 34 -30 -18 -125 -100 -103 -90 6 4 3 -12 -8
-33 -10 -22 -19 -44 -19 -50 0 -22 -22 -21 -40 1 l-19 23 8 -37 c10 -43 -24
-218 -50 -258 -9 -14 -20 -41 -23 -60 -5 -30 -2 -39 24 -63 33 -31 38 -61 16
-93 -16 -22 -40 -151 -52 -269 -4 -47 -15 -86 -33 -117 -14 -27 -28 -48 -31
-48 -3 1 -17 17 -32 38 -15 20 -38 50 -50 65 -20 25 -23 40 -23 110 0 73 3 88
29 132 38 64 45 107 35 207 -7 71 -6 83 9 94 14 10 13 11 -11 7 -23 -5 -26 -3
-21 13 6 16 5 17 -7 7 -19 -19 -39 -16 -33 5 5 14 4 15 -5 2 -7 -10 -11 -11
-11 -3 0 7 -10 17 -21 24 -15 8 -19 8 -15 0 4 -6 0 -14 -9 -17 -13 -6 -14 -8
-3 -15 20 -13 -2 -10 -45 5 -29 10 -35 15 -22 20 24 9 37 8 31 -3 -4 -5 4 -7
16 -3 21 5 20 6 -9 16 -17 6 -35 14 -39 18 -4 4 -19 5 -33 2 -18 -4 -22 -3
-12 4 11 8 11 10 0 14 -8 3 5 4 28 3 23 -1 40 2 37 7 -3 5 -15 6 -27 2 -21 -6
-21 -6 -4 13 9 11 14 23 10 26 -3 4 -1 7 6 7 8 0 11 7 6 18 -5 13 -4 14 6 5 7
-7 24 -9 40 -6 21 4 28 1 31 -13 3 -18 4 -18 10 -2 6 14 0 20 -25 27 -18 5
-24 10 -14 10 9 1 22 12 28 25 7 14 17 23 23 22 6 -2 8 -1 4 1 -18 10 -6 24
15 18 21 -7 21 -6 3 8 -11 8 -28 12 -39 9 -14 -4 -16 -7 -5 -13 11 -7 11 -9
-1 -9 -7 0 -11 -6 -8 -14 7 -19 -10 -32 -51 -41 -33 -7 -41 -16 -46 -51 -3
-18 -34 -35 -48 -27 -15 8 -8 61 12 86 16 20 17 26 6 30 -7 3 -17 22 -21 43
-3 21 -14 44 -23 51 -16 12 -16 14 1 24 18 10 18 11 0 25 -12 9 -13 12 -3 9 8
-3 26 5 40 18 23 22 79 39 123 38 9 0 17 4 17 10 0 5 13 9 30 9 17 0 33 7 39
17 5 10 13 15 17 11 4 -4 1 -14 -6 -23 -10 -12 -10 -15 2 -15 22 0 52 26 44
38 -4 6 -20 10 -36 8 -37 -4 -38 10 -3 46 36 38 22 36 -17 -2 -26 -25 -29 -34
-19 -46 16 -20 4 -30 -15 -11 -8 8 -13 17 -10 20 3 3 -4 8 -15 12 -12 3 -21
11 -21 16 0 6 6 7 13 4 6 -4 4 0 -6 9 -13 10 -17 21 -12 35 5 17 2 21 -14 21
-13 0 -19 -5 -15 -14 3 -8 1 -17 -4 -20 -13 -8 -10 63 3 72 6 4 17 26 24 49 8
24 22 45 33 48 10 4 18 15 18 26 0 11 8 22 18 25 9 3 26 10 37 15 17 8 17 9
-5 5 -24 -5 -23 -4 8 22 18 15 32 30 32 34 0 10 -62 -12 -84 -31 -11 -9 -16
-10 -12 -3 7 12 -18 2 -159 -63 -81 -37 -185 -99 -222 -133 -90 -81 -111 -101
-141 -140 -19 -23 -42 -42 -53 -42 -10 0 -19 -4 -19 -10 0 -5 -18 -21 -40 -35
-54 -34 -186 -208 -232 -307 -21 -44 -38 -86 -38 -92 1 -6 7 3 14 20 8 18 20
35 26 39 15 9 11 -12 -14 -85 -30 -88 -46 -157 -46 -196 -1 -21 -7 -50 -15
-64 -8 -14 -14 -44 -15 -67 0 -59 43 -173 75 -196 14 -10 25 -26 25 -35 1 -24
34 -93 59 -121 14 -16 21 -37 21 -64 0 -40 31 -119 57 -145 7 -7 13 -19 13
-25 0 -8 4 -7 9 2 5 8 18 12 29 9 15 -4 19 -2 15 8 -3 8 -16 14 -29 14 -16 0
-28 8 -35 23 -8 18 -3 35 30 96 23 41 41 77 41 80 0 8 92 66 105 66 6 0 10 -7
10 -15 0 -8 11 -17 25 -19 24 -3 24 -2 7 16 -36 41 -18 53 82 53 81 0 96 -9
150 -93 38 -58 40 -63 24 -75 -25 -19 -121 -7 -148 17 -11 10 -30 23 -41 30
-20 9 -22 8 -20 -14 1 -30 21 -40 111 -54 52 -9 78 -9 102 -1 30 11 44 6 217
-78 114 -56 191 -100 200 -114 8 -13 33 -94 56 -180 23 -87 47 -173 55 -191
24 -58 101 -153 162 -200 44 -34 65 -59 80 -94 38 -90 38 -99 -5 -144 -53 -54
-65 -101 -56 -208 8 -106 39 -183 93 -231 31 -28 37 -39 31 -55 -7 -18 -16
-20 -98 -19 -97 1 -122 11 -122 47 0 11 -13 44 -30 74 -16 29 -30 60 -30 68 0
30 -30 75 -50 75 -26 0 -62 52 -89 128 -20 57 -21 65 -8 80 8 9 20 35 26 57
13 50 62 84 67 47 0 -4 3 -14 7 -22 3 -8 7 -26 9 -40 2 -19 10 -26 31 -28 33
-4 35 14 7 60 -24 40 -26 77 -4 92 23 18 24 79 0 84 -10 2 -31 16 -46 31 -16
15 -54 35 -84 44 -30 10 -58 22 -61 28 -4 5 -24 18 -46 30 -37 19 -43 19 -64
5 -28 -18 -51 -12 -66 16 -9 16 -6 25 14 47 24 24 25 28 12 57 -16 38 -94 104
-123 104 -13 0 -29 11 -39 28 -9 15 -28 39 -41 54 -14 15 -30 37 -36 50 -6 13
-25 29 -41 36 -17 7 -37 17 -45 23 -8 5 -26 14 -39 19 -14 6 -31 20 -39 31
l-14 20 -23 -21 c-20 -19 -23 -19 -29 -4 -4 9 0 27 9 40 l15 24 -47 -2 c-32
-1 -54 -8 -66 -20 -14 -14 -22 -16 -37 -8 -19 10 -20 7 -22 -47 0 -32 -2 -64
-2 -71 -1 -8 -18 -22 -40 -31 -44 -21 -56 -36 -56 -74 0 -15 -6 -36 -12 -47
-10 -16 -10 -26 1 -52 8 -18 28 -75 45 -126 26 -77 42 -106 90 -164 66 -78 77
-111 64 -195 -5 -29 -4 -70 1 -92 5 -25 5 -43 -1 -49 -23 -23 16 -76 111 -150
48 -37 57 -41 60 -25 2 10 12 26 22 36 17 16 24 17 55 7 40 -14 53 -8 34 15
-19 23 -6 28 28 11 17 -9 37 -13 44 -11 8 3 27 -11 46 -34 19 -24 47 -44 69
-51 91 -29 177 -85 257 -166 76 -77 90 -86 206 -138 69 -31 137 -56 152 -56
19 0 28 -5 28 -15 0 -9 7 -18 15 -21 8 -4 15 -14 15 -24 0 -11 5 -22 11 -25 6
-4 7 -14 3 -24 -3 -9 -10 -37 -14 -62 -5 -25 -22 -66 -38 -90 -16 -24 -41 -64
-56 -87 -32 -51 -77 -74 -176 -92 -44 -8 -98 -29 -167 -67 -107 -57 -121 -68
-100 -76 9 -3 174 34 233 53 0 0 -1 -14 -4 -30 -5 -38 11 -39 37 -1 15 21 44
37 113 62 51 18 107 41 123 51 45 27 49 22 21 -29 -14 -27 -26 -57 -28 -68 -4
-29 38 -22 84 15 45 36 51 37 76 5 31 -39 45 -30 22 15 -35 68 -23 110 32 110
43 0 95 -52 115 -116 21 -69 39 -73 34 -7 l-2 21 38 -19 c21 -10 57 -21 81
-25 54 -8 57 13 7 47 -19 13 -35 27 -35 31 0 10 57 -15 157 -68 78 -41 153
-58 153 -36 0 5 -22 24 -49 43 -44 29 -79 74 -68 85 9 9 106 -41 159 -82 73
-57 105 -60 56 -6 l-23 25 35 -7 c39 -8 238 -26 285 -26 38 0 64 15 49 30 -5
5 -53 19 -105 30 -51 11 -128 36 -169 55 -41 19 -118 50 -172 69 -145 52 -173
70 -209 131 -35 62 -75 146 -88 187 -7 20 -28 56 -46 80 -19 24 -35 53 -35 66
0 13 -7 37 -16 54 -11 22 -14 45 -10 75 7 54 24 85 75 143 47 54 59 48 76 -37
l12 -58 68 -8 c37 -5 79 -6 92 -2 14 3 65 46 114 96 67 68 91 101 100 132 6
22 25 55 42 73 69 70 79 84 92 140 8 33 14 97 13 144 0 84 -1 85 -9 30 -5 -30
-6 -67 -3 -81 3 -16 -1 -31 -11 -39 -9 -7 -15 -29 -15 -54 0 -23 -7 -51 -15
-62 -11 -14 -14 -15 -9 -3 3 10 0 20 -7 25 -7 4 -14 3 -16 -3 -3 -8 -13 -8
-33 0 -35 13 -41 49 -13 79 9 10 11 18 5 18 -6 0 -9 8 -6 18 5 14 3 14 -10 -2
-9 -11 -16 -26 -16 -33 0 -10 -20 -13 -75 -13 -60 0 -75 3 -75 15 0 11 11 15
40 15 36 0 40 2 40 25 l0 25 -115 -6 c-103 -6 -115 -5 -115 9 0 10 8 17 17 17
14 0 13 4 -5 23 -12 13 -19 27 -15 32 5 4 1 6 -7 3 -8 -2 -16 -19 -18 -36 -2
-18 -7 -30 -12 -27 -4 3 -6 -5 -2 -17 3 -14 1 -19 -6 -14 -12 7 -23 56 -27
115 -1 20 -7 35 -13 34 -6 -2 -9 3 -6 10 3 8 -2 14 -11 14 -18 0 -18 -2 -4
-28 9 -18 8 -20 -12 -17 -12 2 -24 8 -26 15 -4 11 2 19 42 49 11 9 15 13 8 9
-7 -3 -21 3 -33 15 -21 21 -27 35 -10 25 6 -3 10 -1 10 4 0 6 -5 11 -11 11 -6
0 -8 10 -5 23 4 15 2 13 -6 -5 -7 -16 -17 -28 -22 -28 -10 0 -42 -45 -58 -82
-4 -9 -25 -22 -46 -27 -22 -6 -60 -29 -86 -52 -72 -63 -65 -49 75 168 93 144
112 183 89 183 -5 0 -10 7 -10 15 0 8 -10 20 -22 26 -13 7 -27 17 -31 23 -6 7
-7 4 -3 -7 3 -10 -5 -45 -19 -77 -14 -33 -25 -70 -25 -82 0 -15 -28 -49 -85
-104 -47 -45 -85 -85 -85 -90 0 -5 -4 -15 -9 -23 -8 -12 -15 -10 -44 12 -54
41 -77 98 -77 194 l0 81 50 55 c59 64 75 100 56 120 -8 7 -16 22 -19 33 -4 17
-5 16 -6 -3 -1 -13 -16 -34 -38 -50 -21 -15 -59 -49 -86 -75 l-49 -48 6 -57 7
-58 -35 55 c-42 66 -43 69 -95 242 -23 76 -57 175 -76 220 -19 45 -35 88 -35
94 0 6 12 37 26 68 19 43 27 82 34 168 10 132 26 189 68 250 41 60 64 79 330
282 l103 79 116 -6 c104 -6 121 -9 169 -37 63 -35 68 -26 19 29 l-35 39 64 68
c35 38 62 71 60 73 -2 2 -40 -23 -84 -57 -43 -34 -87 -63 -97 -64 -10 0 -62 0
-115 0 l-98 2 17 36 c17 34 17 37 0 48 -20 15 -12 26 18 26 17 0 30 15 54 60
30 56 31 62 20 100 -12 41 -12 41 32 86 24 25 69 58 99 74 31 15 85 48 121 72
l66 44 54 -23 c29 -13 59 -21 66 -18 8 2 16 -2 19 -10 4 -8 15 -15 25 -15 10
0 19 -4 19 -8 0 -5 11 -14 25 -20 15 -7 25 -8 25 -2 0 6 8 10 18 10 19 0 50
-45 39 -56 -4 -4 -34 5 -67 19 -33 15 -60 25 -60 23 0 -2 20 -16 43 -30 24
-13 61 -46 81 -71 21 -25 43 -44 50 -42 6 3 22 -5 36 -17 22 -19 22 -18 -2 10
-31 34 -35 46 -13 38 21 -9 19 1 -15 63 -35 63 -36 67 -12 59 25 -9 -23 28
-90 70 -32 19 -63 32 -69 28 -7 -4 -9 -3 -6 3 15 24 -302 145 -463 177 -86 17
-290 37 -335 34 -16 -2 -52 -4 -80 -5z m200 -38 c172 -10 165 -6 165 -74 0
-55 -12 -82 -65 -149 -4 -5 -239 139 -263 161 -56 52 -48 81 18 72 19 -2 85
-7 145 -10z m238 -28 c3 -8 55 -29 116 -47 112 -34 148 -54 69 -39 -60 11 -64
11 -48 -6 8 -7 33 -20 55 -27 22 -7 40 -18 40 -23 -1 -6 -41 -33 -90 -62 -50
-28 -116 -70 -148 -92 -31 -23 -61 -41 -66 -41 -4 0 -13 32 -20 71 -11 70 -11
72 14 105 21 28 25 43 25 103 0 68 1 71 24 71 13 0 26 -6 29 -13z m-878 -912
c23 -54 27 -74 22 -120 -3 -31 -15 -76 -27 -101 l-22 -44 -33 27 c-127 107
-153 132 -142 136 7 3 4 6 -6 6 -10 1 -16 5 -12 11 3 5 12 7 20 3 8 -3 15 0
15 6 0 6 -5 11 -12 11 -6 0 -8 3 -5 6 4 4 13 1 22 -6 12 -10 18 -10 32 1 9 8
14 9 10 2 -4 -7 -1 -10 10 -9 9 2 19 9 21 17 3 8 1 11 -3 7 -11 -11 -35 11
-35 32 0 23 31 31 61 14 21 -12 22 -13 5 -14 -19 0 -19 0 -1 -13 14 -11 15
-16 5 -22 -9 -5 -11 -4 -6 3 4 7 2 12 -4 12 -21 0 -4 -23 19 -27 12 -2 20 1
16 6 -3 6 -6 26 -7 46 -1 26 -6 35 -17 34 -29 -2 -41 1 -41 11 0 6 10 10 23
10 12 0 29 5 37 10 24 16 26 13 55 -55z m-195 -189 c101 -72 125 -115 122
-214 -2 -81 2 -91 103 -227 51 -69 93 -155 76 -155 -17 0 -247 72 -274 86 -34
18 -109 118 -150 200 l-30 61 38 71 c33 64 36 75 26 103 -16 45 -14 129 2 129
7 0 46 -24 87 -54z m-501 -22 c11 -14 25 -23 30 -20 15 9 60 -15 66 -36 4 -10
13 -18 22 -18 13 0 14 -9 9 -52 -4 -29 -10 -63 -13 -75 -8 -34 17 -29 30 6
l11 29 30 -32 c17 -17 51 -48 76 -69 l45 -38 -100 4 c-69 3 -110 9 -133 21
-18 10 -38 16 -45 13 -6 -2 1 -11 18 -19 17 -9 41 -27 53 -41 l24 -25 -53 -36
c-63 -42 -105 -46 -155 -15 -19 11 -34 24 -34 27 0 4 18 30 40 57 45 57 49 71
19 80 -14 5 -28 0 -44 -15 -22 -21 -24 -21 -55 -5 l-33 17 5 74 c4 64 9 80 35
112 16 20 35 47 42 60 18 33 82 31 110 -4z m301 -104 c0 -8 9 -28 20 -45 14
-21 16 -33 8 -42 -5 -7 -8 -29 -6 -48 4 -38 -2 -44 -23 -19 -7 9 -36 31 -64
49 -39 24 -53 41 -63 71 -16 52 2 80 60 92 40 8 44 7 55 -17 7 -14 12 -33 13
-41z m494 -1583 c9 -23 16 -52 16 -64 0 -13 19 -38 49 -65 35 -30 55 -59 70
-97 11 -30 18 -57 15 -60 -3 -3 -24 14 -45 38 -48 54 -136 115 -246 171 -74
38 -101 60 -73 60 6 0 10 9 10 19 0 23 50 38 131 40 l56 1 17 -43z"/>
<path d="M2058 2855 c-4 -4 8 -33 25 -65 l32 -57 -19 -72 c-10 -39 -17 -73
-15 -74 36 -25 59 -35 64 -27 3 5 13 32 21 59 16 55 29 61 134 61 53 0 58 2
53 20 -3 11 -11 20 -18 20 -8 0 -20 3 -28 6 -10 3 -17 -1 -19 -13 -3 -16 -5
-16 -23 5 -22 24 -52 29 -69 9 -6 -7 -10 -11 -9 -9 1 2 -5 11 -13 20 -76 87
-111 122 -116 117z"/>
<path d="M2980 1981 c-14 -4 -29 -17 -35 -29 -5 -12 -13 -22 -17 -22 -4 0 -15
-8 -25 -19 -10 -10 -46 -29 -81 -41 -59 -21 -80 -35 -70 -46 3 -2 31 5 63 16
73 25 87 21 52 -14 -32 -32 -33 -36 -8 -36 11 0 23 9 26 20 6 18 42 46 50 38
2 -2 5 -18 8 -36 7 -42 13 -48 32 -32 8 7 15 9 15 4 1 -23 20 25 20 49 0 20 7
30 26 37 14 6 30 8 34 5 13 -8 34 70 25 92 -8 19 -9 16 -19 -29 -9 -40 -22
-34 -30 12 -7 42 -14 45 -66 31z"/>
<path d="M2328 504 c3 -72 0 -99 -10 -105 -8 -5 4 -8 32 -8 25 0 38 3 30 6
-22 9 -30 24 -30 61 0 47 22 41 64 -18 26 -36 43 -50 60 -50 21 0 20 4 -22 46
-46 45 -46 46 -26 62 30 25 37 51 19 78 -13 20 -24 24 -68 24 l-52 0 3 -96z"/>
</g>
</svg>
