<?xml version="1.0" standalone="no"?>
<!DOCTYPE svg PUBLIC "-//W3C//DTD SVG 20010904//EN"
 "http://www.w3.org/TR/2001/REC-SVG-20010904/DTD/svg10.dtd">
<svg version="1.0" xmlns="http://www.w3.org/2000/svg"
 width="512.000000pt" height="512.000000pt" viewBox="0 0 512.000000 512.000000"
 preserveAspectRatio="xMidYMid meet">
<metadata>
Created by potrace 1.15, written by Peter Selinger 2001-2017
</metadata>
<g transform="translate(0.000000,512.000000) scale(0.100000,-0.100000)"
fill="#000000" stroke="none">
<path d="M1315 3665 c-660 -234 -1203 -426 -1207 -427 -10 -4 2392 -938 2410
-938 8 0 522 198 1143 440 946 368 1138 440 1180 440 l49 0 0 -600 0 -600 -44
-43 c-73 -69 -71 -126 5 -191 36 -30 39 -37 39 -85 0 -28 -7 -67 -15 -87 -44
-105 -99 -382 -84 -422 17 -45 50 -82 91 -103 33 -17 45 -18 74 -9 34 12 104
83 104 107 0 8 12 13 30 13 27 0 30 3 30 30 0 26 -4 30 -27 30 -28 0 -28 2
-51 116 -12 64 -34 148 -48 188 -15 39 -28 98 -31 131 -4 57 -3 61 24 77 15 9
39 35 53 57 19 31 31 41 53 41 17 0 27 5 27 15 0 10 -10 15 -29 15 -20 0 -32
6 -36 19 -3 11 -24 37 -45 59 l-40 40 0 623 0 624 -1221 430 c-671 237 -1224
431 -1227 432 -4 1 -547 -189 -1207 -422z"/>
<path d="M832 2339 c4 -276 7 -310 26 -369 130 -397 705 -703 1467 -781 383
-39 900 55 1272 231 305 145 501 327 576 538 19 52 21 86 25 371 3 301 3 313
-15 307 -10 -4 -370 -144 -800 -312 l-782 -304 -84 0 -85 0 -780 304 c-429
167 -790 307 -802 311 l-22 7 4 -303z"/>
</g>
</svg>
