<?xml version="1.0" standalone="no"?>
<!DOCTYPE svg PUBLIC "-//W3C//DTD SVG 20010904//EN"
 "http://www.w3.org/TR/2001/REC-SVG-20010904/DTD/svg10.dtd">
<svg version="1.0" xmlns="http://www.w3.org/2000/svg"
 width="981.000000pt" height="693.000000pt" viewBox="0 0 981.000000 693.000000"
 preserveAspectRatio="xMidYMid meet">
<metadata>
Created by potrace 1.15, written by Peter Selinger 2001-2017
</metadata>
<g transform="translate(0.000000,693.000000) scale(0.100000,-0.100000)"
fill="#000000" stroke="none">
<path d="M4113 5556 c-117 -29 -240 -115 -278 -195 l-20 -41 -67 0 -68 0 0
-55 0 -55 53 0 53 0 17 -67 c15 -61 17 -130 17 -628 0 -308 -3 -752 -7 -988
l-6 -427 -24 -6 c-14 -4 -50 3 -85 16 -63 23 -80 23 -203 0 -88 -16 -217 -12
-240 8 -27 22 -36 47 -23 60 15 15 1 32 -28 32 -34 0 -30 15 12 39 38 23 39
46 0 31 -21 -8 -22 -6 -18 18 5 26 5 26 -39 -10 -63 -52 -159 -156 -159 -173
0 -18 29 -47 41 -40 5 4 9 3 9 -2 0 -4 4 -15 10 -23 7 -12 12 -12 29 4 21 19
21 19 21 -9 0 -20 4 -26 16 -21 21 8 62 -41 69 -84 4 -19 17 -55 30 -80 13
-26 25 -73 29 -111 5 -58 4 -68 -14 -84 -27 -24 -25 -35 5 -35 41 0 64 27 55
65 -11 49 6 67 19 20 8 -31 8 -44 -4 -62 -15 -22 -14 -23 14 -23 42 0 55 27
36 74 -9 20 -18 62 -21 94 l-6 58 77 -4 c49 -3 85 0 100 8 20 11 26 9 45 -10
12 -12 28 -36 35 -54 12 -28 12 -37 -1 -62 -9 -16 -23 -38 -33 -49 -32 -35
-34 -55 -6 -55 28 0 65 27 65 48 0 7 10 32 22 55 13 23 26 51 29 62 l7 20 1
-20 c1 -19 3 -18 20 5 17 21 21 22 36 10 24 -20 63 -83 71 -115 4 -18 1 -32
-11 -45 -18 -19 -17 -20 9 -20 15 0 35 7 43 16 15 15 14 23 -11 100 -16 46
-34 88 -41 94 -12 10 -21 56 -28 134 -1 20 4 32 18 40 11 6 26 19 34 29 12 18
30 18 270 14 208 -3 754 -37 1364 -83 l87 -7 0 629 1 629 302 307 302 308 155
-177 c85 -97 184 -208 220 -247 36 -39 86 -96 111 -126 l46 -55 7 -280 c3
-154 7 -413 7 -575 1 -162 4 -312 6 -334 l6 -39 75 7 c41 3 77 8 79 9 3 3 -5
295 -22 841 l-6 189 106 -6 107 -7 -28 38 c-16 20 -130 168 -254 327 -124 160
-275 354 -335 433 l-110 143 -634 -6 -635 -6 -64 -57 c-35 -31 -117 -103 -181
-159 l-116 -102 -3 217 c-2 119 0 245 3 280 l7 62 44 0 44 0 0 55 0 55 -53 0
c-50 0 -53 2 -71 35 -27 49 -113 128 -174 159 -104 53 -254 70 -369 42z m807
-1541 c212 -14 393 -25 403 -25 17 0 17 -22 15 -387 l-3 -388 -25 2 c-54 3
-455 36 -635 51 l-190 17 -3 378 -2 377 27 0 c16 0 201 -11 413 -25z"/>
<path d="M4036 2624 c-17 -17 -18 -25 -7 -64 4 -14 2 -47 -6 -75 -16 -62 -17
-139 -2 -168 7 -12 27 -36 45 -53 36 -33 42 -62 24 -108 -6 -16 -17 -26 -29
-26 -10 0 -22 -7 -25 -16 -4 -12 -2 -15 9 -10 8 3 15 0 15 -6 0 -9 3 -9 12 0
14 14 48 16 48 2 0 -14 42 -8 59 8 11 11 11 16 2 21 -21 14 -3 75 27 93 46 27
72 62 80 109 5 24 19 60 30 79 25 39 28 71 10 103 -10 20 -10 21 5 9 9 -8 17
-23 19 -34 4 -29 28 -36 28 -8 0 35 -28 77 -57 88 -50 17 -92 -13 -115 -83
-13 -41 -40 -57 -61 -36 -5 5 -14 36 -18 68 -6 44 -14 63 -34 81 -14 12 -23
27 -20 32 10 16 -22 11 -39 -6z"/>
<path d="M5185 2531 c-125 -36 -220 -97 -227 -144 -2 -16 -9 -21 -24 -19 -25
3 -37 -19 -25 -50 5 -14 10 -17 15 -10 11 19 26 14 26 -8 0 -30 30 -112 52
-143 18 -25 19 -35 11 -77 -9 -44 -7 -54 16 -97 22 -40 31 -49 59 -51 36 -4
37 -2 17 53 -20 56 -18 114 4 151 l19 32 53 -14 c70 -18 232 -17 284 1 22 8
44 15 48 15 5 0 7 -40 5 -90 -3 -77 -1 -90 14 -93 9 -3 15 -13 14 -23 -4 -22
10 -34 39 -34 19 0 21 5 17 64 -6 85 11 133 51 151 18 7 79 20 137 29 69 11
107 21 113 31 4 8 18 15 31 15 19 0 24 7 29 38 5 25 3 38 -6 41 -6 2 -29 21
-49 41 -38 37 -47 63 -28 75 6 3 10 22 10 42 l0 35 -62 -34 -63 -34 -50 19
c-128 49 -363 107 -430 106 -22 0 -67 -8 -100 -18z"/>
<path d="M3913 2521 c-14 -13 -22 -38 -27 -81 -5 -41 -12 -63 -22 -67 -17 -6
-84 22 -84 35 0 4 -14 23 -32 41 -26 26 -34 30 -45 19 -21 -21 -28 -105 -11
-126 8 -9 22 -42 31 -73 21 -70 47 -104 92 -120 37 -14 47 -43 23 -67 -9 -9
-8 -12 8 -12 11 0 26 -6 33 -12 11 -11 12 -10 6 1 -6 11 -4 13 11 8 15 -5 14
-3 -3 9 -23 16 -32 64 -13 64 6 0 10 -11 10 -24 0 -26 28 -40 51 -25 10 6 6
11 -14 18 -38 15 -37 53 3 83 17 12 39 41 51 65 20 42 20 45 4 110 -9 36 -21
76 -25 88 -6 16 -4 27 6 37 14 13 14 17 -1 32 -21 21 -27 20 -52 -3z"/>
<path d="M6153 2351 c-48 -22 -93 -63 -75 -69 7 -2 12 -9 12 -15 0 -7 7 -25
15 -40 8 -15 12 -34 9 -42 -7 -18 13 -55 31 -55 10 0 12 7 5 29 -13 45 0 54
84 55 71 1 76 0 76 -20 0 -14 -10 -26 -30 -34 -32 -13 -81 -68 -92 -103 -3
-12 -7 -83 -7 -157 -1 -81 -7 -160 -16 -199 -9 -35 -13 -72 -9 -83 3 -10 0
-40 -6 -66 -8 -32 -8 -70 -2 -122 8 -67 10 -72 17 -42 5 23 10 29 16 21 5 -9
12 3 21 35 11 42 14 45 19 25 4 -13 7 -60 8 -105 1 -76 3 -82 31 -109 17 -16
30 -39 30 -51 0 -32 75 -57 108 -35 11 7 11 14 -3 42 l-18 34 26 -27 c25 -27
86 -46 107 -33 7 4 -1 27 -24 68 -49 89 -104 307 -77 307 6 0 11 -9 11 -19 0
-32 19 -34 31 -4 9 25 11 26 20 10 12 -20 29 -14 29 11 0 9 12 25 25 35 25 18
26 18 54 -2 110 -78 216 -79 504 -6 l27 7 1 -98 c1 -160 15 -332 29 -348 14
-18 73 -31 96 -22 14 5 12 12 -11 52 -37 62 -43 141 -17 214 l19 55 22 -91
c11 -50 21 -110 21 -133 0 -54 26 -81 79 -81 22 0 42 4 45 8 3 5 -10 33 -29
62 -39 61 -50 116 -40 197 10 78 13 83 51 83 44 0 101 58 173 176 36 59 64 92
93 110 l41 26 101 -30 c132 -40 185 -47 230 -31 58 21 57 47 -2 135 -35 51
-53 91 -58 122 -5 36 -19 61 -62 111 -67 81 -86 90 -141 68 -55 -22 -68 -21
-107 8 -49 38 -59 34 -54 -22 2 -31 -24 -30 -102 3 -120 51 -165 55 -503 48
-185 -3 -347 -11 -402 -20 -119 -18 -246 -19 -241 -1 5 12 13 15 96 37 46 12
53 27 23 54 -11 10 -17 25 -14 37 6 21 0 23 -25 10 -12 -6 -44 -2 -101 15
-100 29 -114 29 -168 5z"/>
</g>
</svg>
