<?xml version="1.0" standalone="no"?>
<!DOCTYPE svg PUBLIC "-//W3C//DTD SVG 20010904//EN"
 "http://www.w3.org/TR/2001/REC-SVG-20010904/DTD/svg10.dtd">
<svg version="1.0" xmlns="http://www.w3.org/2000/svg"
 width="1976.000000pt" height="1284.000000pt" viewBox="0 0 1976.000000 1284.000000"
 preserveAspectRatio="xMidYMid meet">
<metadata>
Created by potrace 1.15, written by Peter Selinger 2001-2017
</metadata>
<g transform="translate(0.000000,1284.000000) scale(0.100000,-0.100000)"
fill="#000000" stroke="none">
<path d="M3815 10479 c-202 -26 -386 -120 -532 -272 -125 -130 -198 -268 -234
-442 -60 -289 23 -579 229 -796 200 -211 471 -312 749 -279 369 43 660 288
770 647 24 80 27 103 27 248 0 145 -3 168 -27 248 -110 358 -400 603 -767 647
-95 11 -116 11 -215 -1z m144 -397 c85 -170 131 -286 131 -332 0 -211 -340
-230 -375 -21 -5 30 1 57 28 127 44 113 147 324 158 324 5 0 31 -44 58 -98z
m-317 -559 c93 -193 111 -245 103 -293 -20 -117 -155 -183 -268 -131 -118 54
-134 136 -61 308 75 176 126 273 144 273 4 0 41 -71 82 -157z m695 47 c141
-281 153 -347 79 -428 -98 -108 -293 -62 -326 77 -9 39 -8 55 8 101 50 142
159 362 177 357 5 -2 34 -50 62 -107z"/>
<path d="M13234 10280 c-82 -10 -217 -51 -289 -88 -215 -108 -390 -314 -459
-539 l-7 -23 260 0 261 0 0 53 c0 29 5 58 12 65 7 7 40 12 80 12 64 0 68 1 68
23 0 41 -17 47 -141 47 -101 0 -123 -3 -153 -21 -93 -55 -183 56 -107 132 35
35 77 38 114 9 22 -17 40 -20 137 -20 97 0 115 3 137 20 14 11 38 20 53 20 15
0 39 -9 53 -20 21 -17 40 -20 127 -20 87 0 106 3 127 20 37 29 79 26 114 -9
35 -35 38 -77 9 -114 -29 -37 -75 -44 -111 -18 -25 18 -42 21 -137 21 -115 0
-132 -6 -132 -47 0 -21 4 -23 56 -23 82 0 94 -10 94 -75 l0 -55 153 0 c182 0
218 -9 273 -64 50 -49 64 -93 64 -198 0 -42 5 -80 10 -83 6 -3 10 -22 10 -41
0 -28 -5 -36 -26 -44 -38 -15 -284 -12 -314 3 -27 14 -36 38 -24 65 9 21 5 53
-8 70 -7 8 -38 12 -87 12 -75 0 -76 0 -105 -36 -33 -42 -96 -73 -145 -74 -49
0 -115 35 -142 75 l-24 35 -292 0 -293 0 0 -39 c0 -108 58 -284 136 -408 205
-330 607 -486 995 -388 35 9 109 38 164 65 176 85 318 227 406 405 73 147 91
230 91 400 0 170 -18 253 -91 400 -167 339 -541 541 -917 495z m550 -1242 c30
-62 59 -129 66 -149 46 -129 -111 -227 -224 -138 -37 29 -50 85 -31 140 24 68
118 259 127 259 5 0 33 -51 62 -112z"/>
<path d="M9150 7734 c-146 -31 -285 -131 -342 -245 -57 -114 -75 -279 -43
-404 40 -157 121 -264 341 -451 153 -131 223 -209 271 -302 31 -62 37 -84 41
-156 7 -129 -25 -176 -119 -176 -33 0 -48 7 -74 33 -43 43 -74 167 -75 295 0
27 -5 42 -12 42 -7 0 -98 -16 -202 -36 l-189 -37 7 -68 c3 -37 17 -103 31
-146 83 -263 288 -407 555 -390 160 11 294 79 382 195 63 83 88 165 88 286 -1
271 -108 453 -431 727 -170 144 -222 218 -235 333 -8 70 9 137 46 176 24 25
36 30 77 30 87 -1 122 -55 130 -207 3 -51 8 -93 12 -93 3 0 95 12 204 27 l197
27 0 52 c0 135 -50 255 -149 353 -73 74 -138 113 -226 136 -72 18 -198 18
-285 -1z"/>
<path d="M5948 7678 c2 -18 63 -463 136 -988 l132 -955 172 -3 c95 -1 172 0
172 3 0 25 151 1216 157 1239 6 19 32 -165 86 -590 43 -341 81 -627 83 -636 5
-16 22 -18 175 -18 93 0 169 1 169 3 0 5 269 1932 273 1955 l4 22 -171 0 -172
0 -58 -597 c-55 -556 -72 -711 -75 -673 -2 26 -151 1193 -157 1233 l-6 38
-146 -3 -147 -3 -81 -633 c-45 -348 -84 -635 -86 -637 -2 -3 -19 154 -37 348
-18 193 -45 480 -60 637 l-26 285 -171 3 -170 2 4 -32z"/>
<path d="M7905 7698 c-2 -7 -97 -443 -210 -968 -114 -525 -209 -965 -212 -977
l-5 -23 199 0 199 0 18 98 c9 53 26 148 38 210 l20 113 131 -3 130 -3 40 -205
c21 -113 40 -206 41 -208 2 -1 91 -1 198 0 l195 3 -208 965 c-115 531 -211
975 -214 988 -5 22 -7 22 -181 22 -131 0 -176 -3 -179 -12z m230 -927 c25
-183 45 -342 45 -352 0 -17 -9 -19 -101 -19 l-101 0 6 28 c5 25 95 662 97 686
2 29 12 -34 54 -343z"/>
<path d="M9970 6720 l0 -990 200 0 200 0 0 440 0 440 145 0 145 0 0 -440 0
-440 200 0 200 0 0 990 0 990 -200 0 -200 0 0 -405 0 -405 -145 0 -145 0 0
405 0 405 -200 0 -200 0 0 -990z"/>
<path d="M4643 4766 c-84 -40 -155 -75 -158 -77 -7 -8 123 -233 221 -383 183
-277 365 -500 613 -746 307 -305 646 -563 1008 -765 l102 -56 113 11 c123 13
252 4 362 -25 201 -53 407 -180 523 -324 47 -58 49 -60 133 -80 586 -140 1300
-153 1915 -35 613 118 1211 365 1732 715 l82 55 -115 152 c-74 97 -120 150
-127 145 -7 -4 -48 -33 -93 -64 -468 -332 -1052 -576 -1634 -683 -288 -53
-391 -61 -760 -61 -369 0 -472 8 -760 61 -1250 230 -2320 1012 -2934 2147 -26
48 -52 87 -59 86 -7 -1 -81 -33 -164 -73z"/>
<path d="M6535 2619 c-202 -26 -386 -120 -532 -272 -125 -130 -198 -268 -234
-442 -60 -289 23 -579 229 -796 200 -211 471 -312 749 -279 369 43 660 288
770 647 24 80 27 103 27 248 0 145 -3 168 -27 248 -110 358 -400 603 -767 647
-95 11 -116 11 -215 -1z m82 -359 c129 -189 147 -253 99 -355 -41 -89 -124
-145 -213 -145 -70 0 -114 15 -160 55 -61 52 -87 107 -87 185 -1 78 7 95 129
273 114 168 108 168 232 -13z m-401 -549 c21 -16 58 -49 82 -73 l43 -45 34 34
c32 32 35 33 116 33 75 0 89 3 158 37 90 45 177 55 262 30 47 -14 55 -14 69
-2 21 19 230 21 248 3 9 -9 12 -84 12 -275 0 -249 -1 -263 -19 -273 -25 -13
-207 -13 -232 0 -12 7 -19 21 -19 40 l0 30 -292 1 c-161 0 -306 3 -322 5 -42
7 -66 27 -208 171 -140 143 -153 168 -124 236 31 76 123 99 192 48z"/>
<path d="M6421 2165 c-39 -58 -73 -121 -77 -140 -8 -43 10 -96 44 -130 100
-100 271 -23 259 117 -3 39 -17 66 -73 149 -38 55 -72 103 -76 105 -4 3 -39
-43 -77 -101z m61 -84 c3 -1 11 -16 18 -35 8 -25 18 -35 40 -40 21 -4 31 -13
36 -31 10 -39 -12 -58 -59 -52 -75 10 -133 102 -93 146 10 11 25 18 34 16 9
-2 20 -4 24 -4z"/>
<path d="M6111 1636 c-18 -22 -6 -38 132 -173 l124 -123 302 0 302 0 -3 132
-3 131 -40 21 c-30 16 -58 21 -115 21 -67 0 -81 -4 -135 -35 -54 -31 -69 -35
-152 -38 -81 -4 -93 -7 -99 -24 -13 -43 7 -48 195 -48 182 0 201 -4 201 -40 0
-9 -8 -24 -17 -33 -15 -13 -51 -16 -212 -17 l-193 -1 -122 121 c-67 66 -129
120 -138 120 -8 0 -21 -6 -27 -14z"/>
<path d="M7060 1455 l0 -195 45 0 45 0 0 195 0 195 -45 0 -45 0 0 -195z"/>
<path d="M9393 1643 c-59 -20 -116 -88 -137 -161 -13 -47 -16 -107 -16 -308 0
-277 6 -318 60 -392 72 -99 229 -116 304 -33 25 28 29 27 43 -9 11 -29 13 -30
77 -30 l66 0 0 240 0 240 -150 0 -150 0 0 -65 0 -65 56 0 57 0 -5 -79 c-7
-115 -46 -160 -117 -135 -52 18 -56 45 -56 334 0 235 2 269 18 297 19 35 52
49 92 39 39 -10 56 -47 62 -136 l6 -80 88 0 89 0 0 50 c0 63 -17 145 -41 191
-24 48 -80 95 -126 108 -54 15 -170 12 -220 -6z"/>
<path d="M8100 1180 l0 -470 95 0 95 0 0 210 0 210 70 0 70 0 0 -210 0 -210
95 0 95 0 0 470 0 470 -95 0 -95 0 0 -195 0 -195 -70 0 -70 0 0 195 0 195 -95
0 -95 0 0 -470z"/>
<path d="M8675 1638 c2 -7 42 -151 89 -319 l86 -306 0 -151 0 -152 90 0 90 0
0 155 0 156 81 287 c44 158 84 299 89 315 l9 27 -88 0 -87 0 -43 -187 c-24
-104 -47 -194 -50 -201 -4 -7 -20 47 -35 120 -15 73 -34 163 -42 201 l-16 67
-88 0 c-67 0 -88 -3 -85 -12z"/>
<path d="M9890 1180 l0 -470 95 0 95 0 0 470 0 470 -95 0 -95 0 0 -470z"/>
<path d="M10190 1180 l0 -470 195 0 195 0 0 65 0 65 -100 0 -100 0 0 145 0
145 70 0 70 0 0 65 0 65 -70 0 -70 0 0 130 0 130 100 0 100 0 0 65 0 65 -195
0 -195 0 0 -470z"/>
<path d="M10650 1180 l0 -470 80 0 80 0 1 258 0 257 102 -257 102 -258 68 0
67 0 0 470 0 470 -80 0 -80 0 -2 -241 -3 -241 -100 241 -100 241 -67 0 -68 0
0 -470z"/>
<path d="M11260 1180 l0 -470 195 0 195 0 0 65 0 65 -100 0 -100 0 0 145 0
145 70 0 70 0 0 65 0 65 -70 0 -70 0 0 130 0 130 100 0 100 0 0 65 0 65 -195
0 -195 0 0 -470z"/>
</g>
</svg>
