<?xml version="1.0" standalone="no"?>
<!DOCTYPE svg PUBLIC "-//W3C//DTD SVG 20010904//EN"
 "http://www.w3.org/TR/2001/REC-SVG-20010904/DTD/svg10.dtd">
<svg version="1.0" xmlns="http://www.w3.org/2000/svg"
 width="1300.000000pt" height="1300.000000pt" viewBox="0 0 1300.000000 1300.000000"
 preserveAspectRatio="xMidYMid meet">
<metadata>
Created by potrace 1.15, written by Peter Selinger 2001-2017
</metadata>
<g transform="translate(0.000000,1300.000000) scale(0.100000,-0.100000)"
fill="#000000" stroke="none">
<path d="M6343 11105 c-91 -25 -183 -82 -183 -115 0 -6 -4 -10 -8 -10 -11 0
-9 -41 2 -60 6 -10 2 -8 -11 3 -21 18 -22 18 -33 -2 -6 -13 -7 -21 -1 -21 10
0 27 -39 23 -52 -2 -9 40 -21 59 -17 8 2 23 -2 34 -8 12 -6 63 -21 114 -33 87
-21 96 -21 149 -7 32 8 77 18 102 21 45 7 45 7 42 44 -4 48 25 95 74 120 l37
19 -34 20 c-116 71 -220 113 -277 112 -20 0 -60 -7 -89 -14z"/>
<path d="M6920 11081 c-57 -6 -104 -32 -139 -76 -14 -19 -18 -35 -14 -63 5
-41 -16 -97 -45 -118 -12 -9 -6 -14 36 -23 59 -15 81 -34 129 -116 112 -189
116 -197 168 -395 20 -74 49 -178 65 -230 16 -52 47 -161 69 -242 22 -81 49
-165 60 -185 28 -54 81 -102 132 -118 40 -12 41 -14 14 -14 -69 -1 -150 61
-195 150 -22 42 -79 200 -209 579 -75 217 -115 302 -180 384 -17 21 -31 42
-31 47 0 43 -126 53 -248 19 -92 -26 -101 -25 -278 9 -82 16 -177 32 -211 36
-69 8 -133 -7 -133 -31 0 -8 -7 -14 -16 -14 -30 0 -12 -109 35 -206 22 -46 43
-84 47 -84 3 0 3 7 0 16 -3 9 -2 12 5 9 6 -4 8 -13 5 -21 -7 -19 53 -87 71
-80 8 3 12 2 8 -3 -8 -13 33 -40 159 -105 121 -62 146 -80 146 -106 0 -16 27
-89 36 -99 2 -3 16 6 32 20 l27 24 -28 -31 c-27 -30 -27 -31 -12 -67 21 -50
19 -59 -15 -102 l-31 -39 6 -110 c8 -151 18 -190 87 -345 78 -177 99 -231 89
-231 -19 0 -144 126 -185 189 -80 120 -90 151 -90 276 0 88 5 122 22 170 12
32 22 61 22 63 0 9 -78 -55 -118 -98 -24 -25 -66 -68 -94 -97 -30 -32 -47 -57
-42 -64 4 -7 3 -9 -4 -6 -11 8 -103 -101 -123 -146 -7 -15 -16 -27 -20 -27 -8
0 -23 -50 -20 -69 1 -7 -2 -10 -8 -6 -7 3 -11 -2 -11 -14 0 -11 -16 -40 -35
-66 -20 -25 -33 -51 -29 -57 4 -6 3 -8 -4 -5 -5 4 -26 -8 -44 -25 -67 -64
-108 -98 -108 -91 0 7 -23 -13 -68 -59 -9 -10 -22 -18 -30 -18 -7 0 -10 -4 -7
-10 3 -6 -1 -7 -9 -4 -9 3 -16 2 -16 -4 0 -5 -8 -12 -17 -15 -10 -3 -30 -14
-45 -23 -15 -10 -31 -14 -35 -10 -4 5 -3 11 3 13 6 2 20 11 30 19 10 9 14 13
8 10 -6 -3 -11 1 -11 9 0 8 4 12 8 10 11 -8 40 6 33 16 -3 5 1 6 8 4 8 -3 25
7 38 21 20 21 21 26 7 21 -11 -4 -16 -3 -12 3 3 6 15 10 25 10 18 0 115 89
188 173 32 37 69 107 56 107 -4 0 -1 7 6 15 7 8 10 22 6 30 -3 9 -2 14 3 11 5
-3 11 5 13 18 5 24 4 24 -18 8 -13 -9 -23 -24 -22 -32 3 -21 -10 -40 -25 -35
-7 2 -25 -7 -42 -20 -28 -23 -29 -25 -6 -20 23 4 23 4 5 -16 -11 -12 -21 -16
-27 -10 -13 13 -77 -50 -65 -65 5 -7 3 -16 -6 -23 -9 -7 -17 -8 -20 -2 -3 5
-20 -4 -37 -20 -42 -39 -51 -28 -10 13 17 17 31 36 31 41 0 5 7 4 15 -3 13
-11 15 -10 10 1 -3 8 25 44 70 88 67 67 76 73 92 60 16 -13 17 -12 4 4 -12 15
-9 21 23 52 39 36 53 44 40 23 -5 -9 -3 -9 9 1 27 22 11 30 -61 29 -120 -1
-183 16 -252 71 -67 53 -107 96 -158 169 -20 27 -21 33 -8 38 8 3 29 -1 46
-10 17 -8 39 -12 48 -9 9 3 14 2 9 -2 -4 -5 19 -22 50 -38 32 -16 78 -43 102
-59 24 -16 52 -27 62 -25 10 3 19 1 21 -3 3 -7 134 -49 168 -54 9 -1 20 -5 27
-9 6 -4 14 0 17 9 8 20 14 15 -64 54 -36 18 -79 44 -97 57 -18 14 -37 21 -44
17 -8 -4 -9 -3 -5 4 4 6 -11 35 -34 63 -22 28 -43 62 -46 75 -3 13 -10 21 -16
18 -5 -3 -8 0 -7 7 1 8 -3 34 -10 58 -7 24 -14 69 -17 100 -3 31 -8 70 -13 88
-11 41 -6 272 7 343 6 30 18 79 25 109 8 30 13 61 10 68 -11 27 -162 9 -236
-29 -40 -20 -55 -47 -59 -101 -1 -18 -5 -34 -8 -37 -12 -10 -29 -145 -20 -154
6 -6 10 -15 10 -21 0 -5 -4 -4 -9 3 -10 16 -15 -5 -41 -177 -10 -68 -17 -150
-16 -182 2 -53 7 -62 50 -113 26 -31 51 -54 54 -52 8 5 7 -63 -1 -84 -3 -8
-17 -66 -32 -128 -21 -90 -24 -117 -14 -128 6 -8 9 -17 5 -21 -3 -3 -6 -1 -6
6 0 7 -4 10 -8 7 -9 -5 -27 -78 -77 -311 -53 -245 -54 -248 -33 -269 24 -25
23 -31 -7 -59 -14 -13 -29 -36 -34 -53 -7 -25 -4 -34 22 -61 18 -20 27 -38 24
-48 -9 -22 -37 -31 -48 -14 -21 32 2 -274 30 -411 6 -25 17 -90 27 -145 9 -55
21 -125 26 -155 5 -30 14 -60 19 -67 6 -6 8 -16 5 -21 -6 -10 48 -275 60 -294
4 -7 8 -21 9 -32 1 -12 5 -43 9 -71 7 -46 5 -52 -21 -80 -52 -55 -103 -127
-96 -138 3 -6 1 -7 -5 -3 -14 8 -56 -70 -46 -86 5 -7 3 -8 -6 -3 -9 6 -10 1
-5 -16 5 -18 4 -20 -4 -9 -8 11 -18 -3 -45 -63 -21 -45 -33 -83 -29 -93 5 -12
3 -15 -6 -9 -10 6 -11 2 -6 -15 5 -15 3 -20 -3 -16 -13 8 -16 -3 -40 -129 -28
-144 -33 -240 -20 -370 12 -117 42 -248 58 -253 5 -2 7 -8 4 -13 -16 -26 145
-337 167 -323 5 3 6 -1 4 -9 -6 -13 31 -55 43 -49 4 2 8 -2 10 -10 2 -9 0 -8
-7 2 -6 8 -11 10 -11 5 0 -13 134 -152 181 -188 l37 -28 161 163 160 162 -27
31 -27 30 32 -29 c18 -16 35 -27 38 -24 6 6 -59 58 -72 58 -4 0 -14 9 -21 21
-8 12 -19 18 -28 15 -9 -4 -12 -2 -8 5 3 6 -6 24 -22 40 -17 18 -30 25 -35 18
-4 -7 -8 -5 -12 6 -4 9 -3 13 3 10 18 -11 11 4 -25 54 -19 27 -40 63 -46 80
-6 17 -16 28 -22 24 -6 -3 -7 -1 -3 5 4 6 -1 28 -9 49 -48 114 -59 323 -25
458 24 95 74 203 124 268 20 26 36 52 36 58 0 5 4 8 9 5 10 -6 26 23 22 39 -2
6 1 7 5 3 9 -10 36 11 28 23 -3 5 1 6 8 4 8 -3 25 7 38 21 20 21 21 26 7 21
-11 -4 -16 -3 -12 4 4 5 14 8 23 5 10 -3 28 3 41 13 21 16 22 20 10 37 -8 11
-23 19 -34 19 -13 0 -20 7 -20 20 0 10 -9 28 -20 40 -22 21 -42 27 -37 10 2
-5 -6 -1 -17 9 -23 21 -26 27 -12 23 17 -4 10 12 -20 44 -27 29 -34 30 -29 4
1 -5 -8 -1 -19 9 -22 20 -28 32 -12 21 5 -3 12 -1 15 3 3 5 -8 19 -24 30 -33
25 -45 28 -34 10 4 -7 -7 0 -24 16 -32 30 -45 49 -18 27 31 -26 21 6 -12 39
-20 19 -33 29 -29 23 15 -23 -11 -22 -33 2 l-23 24 24 -4 c22 -4 21 -2 -9 21
-18 14 -30 30 -26 35 8 14 145 -123 139 -139 -3 -7 0 -10 6 -7 6 4 62 -45 125
-108 100 -102 133 -140 106 -123 -5 3 -9 -1 -9 -9 0 -9 4 -11 11 -6 16 12 45
10 40 -4 -3 -6 7 -17 20 -23 21 -9 33 -8 73 12 253 123 622 59 832 -144 138
-133 209 -270 237 -455 61 -399 -207 -777 -608 -859 -109 -23 -246 -21 -336 4
-40 11 -78 17 -84 14 -7 -5 -8 -2 -3 6 6 10 3 12 -13 8 -12 -4 -20 -3 -18 0 2
4 -20 18 -49 32 -50 24 -55 25 -74 9 -18 -15 -19 -18 -6 -29 12 -10 13 -16 4
-27 -10 -11 -14 -11 -28 1 -14 12 -19 11 -42 -15 -22 -24 -24 -31 -13 -40 11
-9 12 -15 3 -26 -10 -11 -14 -11 -28 1 -14 12 -19 11 -42 -15 -22 -24 -24 -31
-13 -40 11 -9 12 -15 3 -26 -10 -11 -14 -11 -28 1 -14 12 -19 11 -42 -15 -22
-24 -24 -31 -13 -40 11 -9 12 -15 3 -26 -10 -11 -14 -11 -29 2 -16 14 -19 14
-33 -9 -16 -23 -15 -24 37 -59 68 -45 171 -97 192 -97 10 0 14 -3 11 -7 -10
-9 62 -36 96 -36 21 0 25 -2 15 -9 -9 -7 -4 -8 15 -3 17 3 26 2 23 -3 -5 -8
46 -21 97 -26 5 -1 10 -772 7 -1073 0 -5 -131 -7 -291 -5 l-290 3 3 -185 3
-185 39 -40 c22 -23 42 -39 44 -36 3 3 11 0 19 -7 7 -6 17 -8 21 -4 10 10 -28
37 -41 29 -6 -3 -7 -1 -4 4 4 6 0 16 -9 23 -8 7 -13 19 -10 26 5 13 -11 13
-34 -1 -13 -8 -13 -7 -1 8 13 16 8 22 -14 17 -5 -1 -4 4 3 12 11 11 14 11 21
0 5 -8 12 -13 17 -12 4 2 13 -6 19 -16 15 -26 37 -49 48 -49 6 0 13 -9 18 -20
4 -11 8 -16 8 -11 1 6 7 2 14 -8 12 -16 32 -17 225 -14 195 3 229 0 202 -17
-6 -4 -6 -15 0 -30 6 -16 6 -25 0 -25 -6 0 -10 -35 -10 -80 0 -45 4 -80 10
-80 5 0 6 -7 3 -17 -4 -11 -3 -14 5 -9 8 4 10 2 6 -8 -3 -9 10 -30 34 -54 l39
-39 111 -7 c128 -8 176 1 214 41 43 47 48 66 48 197 l0 126 296 0 296 0 -4
182 c-3 160 -6 187 -23 215 -40 64 -55 67 -320 73 l-240 5 -3 528 c-2 417 0
528 10 531 225 62 319 102 454 192 248 167 425 409 508 695 39 135 49 233 43
403 -7 201 -42 337 -134 521 -20 40 -91 153 -109 174 -2 2 -14 -4 -26 -15
l-23 -19 19 22 c18 22 18 23 -9 58 -48 64 -157 164 -250 230 -67 47 -94 73
-102 97 -27 76 -35 173 -30 362 4 161 8 202 27 261 39 123 114 256 235 415 39
52 93 127 120 165 57 84 121 169 155 209 110 129 191 212 290 296 246 209 316
309 341 485 9 68 8 80 -16 150 -51 153 -123 265 -254 395 -62 61 -80 87 -100
139 -23 62 -136 215 -266 359 -41 45 -50 51 -64 40 -14 -12 -15 -11 -2 5 13
17 8 25 -62 93 -43 41 -92 81 -110 88 -41 18 -137 25 -207 17z m346 -388 c12
-43 15 -78 11 -140 -10 -137 -58 -219 -145 -242 -46 -13 -61 0 -34 29 20 21
32 62 68 220 18 81 61 190 75 190 5 0 16 -26 25 -57z m247 -406 c-24 -40 -115
-88 -180 -94 -51 -5 -133 12 -133 27 0 12 55 53 108 79 24 12 82 28 130 35 99
14 107 9 75 -47z m17 -462 c47 -15 103 -36 125 -48 29 -14 58 -20 108 -19 79
0 82 -8 18 -53 -39 -27 -50 -30 -114 -29 -51 1 -99 11 -164 33 -104 35 -293
120 -293 132 0 14 34 18 135 15 75 -3 121 -10 185 -31z m-1352 -297 c5 -18 10
-107 10 -198 3 -219 12 -391 24 -413 13 -26 1 -37 -26 -24 -13 7 -22 15 -20
19 2 3 -7 15 -21 26 -13 11 -21 22 -18 26 3 3 1 6 -6 6 -7 0 -11 7 -8 15 4 8
2 17 -3 20 -5 3 -14 31 -20 63 -7 31 -15 64 -18 72 -10 27 -2 155 14 230 9 41
17 85 17 97 1 11 6 19 11 15 5 -3 6 2 3 12 -5 11 -3 15 5 10 8 -5 9 -2 5 10
-4 9 -3 14 2 11 5 -3 12 4 16 15 9 29 23 24 33 -12z m-685 -1108 c24 -81 65
-309 83 -460 3 -30 8 -66 10 -80 2 -14 6 -65 10 -115 4 -52 13 -100 21 -114 8
-13 10 -20 4 -17 -14 9 -14 -19 0 -45 8 -17 7 -23 -8 -35 -28 -21 -47 -17 -60
14 -22 51 -55 137 -58 152 -2 8 -11 44 -20 80 -25 97 -30 163 -30 410 0 213 7
294 23 274 5 -5 15 -34 25 -64z"/>
<path d="M5732 10808 c-15 -19 -55 -107 -57 -126 -1 -9 -5 -28 -9 -42 -6 -22
3 -142 30 -380 4 -30 6 -66 5 -80 -1 -20 1 -22 9 -10 8 11 10 8 8 -15 -4 -44
14 -198 21 -187 3 6 6 -9 7 -31 1 -23 9 -60 18 -82 14 -32 19 -37 27 -25 8 11
9 9 4 -9 -5 -14 -3 -21 3 -17 5 3 9 -2 8 -12 0 -9 4 -16 11 -15 7 2 10 -3 7
-10 -6 -16 44 -69 57 -61 5 3 8 1 7 -4 -3 -10 35 -55 70 -84 17 -14 24 -15 31
-5 52 65 127 153 134 158 13 9 -2 31 -16 26 -7 -2 -18 3 -25 10 -8 8 -23 11
-34 7 -15 -4 -18 -3 -13 7 6 9 3 11 -10 5 -15 -5 -16 -4 -5 9 9 11 9 15 1 15
-18 0 -72 59 -87 96 -19 44 -18 143 2 220 l15 63 -28 29 c-36 37 -59 65 -73
91 -6 12 -15 19 -20 16 -6 -4 -7 1 -3 11 4 11 2 15 -4 11 -12 -8 -26 20 -17
34 3 6 2 15 -3 22 -5 7 -17 39 -27 72 -18 62 -19 182 -1 234 5 15 5 22 -2 18
-5 -3 -10 0 -10 8 0 11 4 12 14 3 7 -6 17 -8 21 -4 4 4 -4 16 -18 26 -30 23
-34 24 -48 8z"/>
<path d="M6010 10160 c0 -12 7 -20 18 -20 11 0 13 -3 5 -8 -9 -5 -9 -18 -2
-47 5 -22 11 -50 13 -63 2 -12 25 -50 51 -85 53 -67 73 -91 60 -68 -5 9 -4 12
3 7 6 -4 9 -13 6 -20 -9 -23 12 -26 35 -5 11 11 44 31 71 45 28 14 50 29 50
33 0 5 -14 38 -30 75 -23 50 -35 66 -50 66 -21 0 -48 11 -130 54 -25 13 -48
22 -52 19 -5 -2 -8 3 -8 12 0 11 -5 15 -16 11 -8 -3 -12 -2 -9 4 3 6 1 10 -4
10 -6 0 -11 -9 -11 -20z"/>
<path d="M2972 1811 c-105 -36 -162 -121 -162 -239 0 -79 9 -109 47 -165 38
-55 100 -88 178 -95 83 -6 143 11 195 55 65 56 85 103 85 203 0 75 -3 91 -28
133 -35 60 -93 102 -158 116 -68 15 -95 13 -157 -8z m188 -71 c73 -37 110
-128 90 -218 -48 -216 -354 -197 -377 24 -17 166 137 270 287 194z"/>
<path d="M6892 1811 c-62 -21 -114 -68 -143 -128 -17 -36 -20 -58 -18 -127 4
-71 8 -89 34 -132 78 -126 271 -154 385 -57 65 56 85 103 85 203 0 75 -3 91
-28 133 -35 60 -93 102 -158 116 -68 15 -95 13 -157 -8z m188 -71 c73 -37 110
-128 90 -218 -48 -216 -354 -197 -377 24 -17 166 137 270 287 194z"/>
<path d="M2196 1805 c-3 -8 26 -119 65 -247 96 -323 105 -325 179 -38 23 91
45 169 48 174 3 6 27 -72 53 -171 26 -100 50 -186 53 -192 4 -6 18 -11 31 -11
18 0 26 8 34 33 73 232 131 442 127 453 -4 9 -15 14 -28 12 -21 -3 -29 -23
-77 -191 -30 -103 -58 -184 -62 -180 -4 4 -26 80 -49 168 -49 183 -54 195 -80
195 -27 0 -32 -12 -81 -202 -24 -93 -46 -168 -49 -168 -3 0 -27 78 -54 173
-27 94 -53 180 -58 190 -11 21 -44 23 -52 2z"/>
<path d="M3437 1814 c-4 -4 -7 -114 -7 -245 0 -217 2 -239 18 -247 39 -20 42
-7 42 166 0 103 4 162 9 157 5 -6 41 -74 80 -151 74 -147 89 -168 113 -159 8
3 50 79 94 168 l79 162 3 -166 c3 -173 9 -197 46 -183 15 6 16 32 14 253 -3
246 -3 246 -25 249 -20 3 -33 -19 -121 -200 l-99 -203 -100 200 c-73 146 -106
201 -120 203 -10 2 -22 0 -26 -4z"/>
<path d="M4077 1813 c-4 -3 -7 -115 -7 -249 l0 -242 23 -6 c12 -3 86 -6 164
-6 115 0 144 3 157 16 20 19 20 19 0 38 -12 13 -41 16 -150 16 l-134 0 0 80 0
79 108 3 c107 3 107 3 107 28 0 25 0 25 -107 28 l-108 3 0 79 0 80 138 0 c146
0 170 7 151 42 -9 16 -24 18 -173 18 -89 0 -166 -3 -169 -7z"/>
<path d="M4526 1804 c-3 -9 -6 -119 -6 -244 0 -211 1 -230 18 -239 41 -22 47
-2 52 191 l5 182 140 -187 c106 -142 145 -187 161 -187 12 0 25 7 28 16 8 20
8 448 0 468 -7 19 -37 21 -53 3 -6 -8 -12 -81 -13 -190 l-3 -177 -143 190
c-140 187 -170 215 -186 174z"/>
<path d="M5257 1813 c-4 -3 -7 -113 -7 -244 0 -225 1 -239 19 -249 26 -13 296
-13 322 0 10 6 19 17 19 25 0 27 -39 35 -164 35 l-126 0 0 80 0 80 99 0 c75 0
101 4 111 15 10 12 10 18 0 30 -10 11 -36 15 -111 15 l-99 0 0 80 0 79 143 3
c139 3 142 4 145 26 4 27 -22 39 -45 21 -12 -10 -15 -10 -9 -1 6 9 -25 12
-142 12 -82 0 -152 -3 -155 -7z"/>
<path d="M5717 1813 c-4 -3 -7 -115 -7 -249 0 -253 2 -263 43 -242 15 8 17 27
18 176 l0 167 82 -162 c45 -90 88 -165 96 -168 24 -9 41 16 114 167 38 81 74
148 79 148 4 0 8 -74 8 -164 0 -152 1 -164 19 -169 40 -10 41 0 39 254 l-3
244 -23 3 c-20 3 -33 -18 -121 -198 l-100 -202 -100 201 c-76 151 -106 201
-119 201 -10 0 -22 -3 -25 -7z"/>
<path d="M6352 1808 c-9 -9 -12 -76 -12 -239 0 -193 2 -230 16 -243 12 -12 20
-13 35 -6 16 9 19 22 19 89 l0 79 78 3 c63 3 85 9 114 29 96 65 90 222 -10
278 -33 18 -55 22 -134 22 -60 0 -98 -4 -106 -12z m220 -77 c28 -25 33 -36 33
-75 0 -36 -6 -51 -27 -73 -24 -23 -38 -28 -98 -31 l-70 -4 0 106 0 106 65 0
c57 0 68 -3 97 -29z"/>
<path d="M7284 1806 c-5 -12 56 -228 127 -453 11 -36 30 -47 53 -30 15 12 26
46 82 262 14 54 28 104 31 109 4 5 27 -72 53 -172 26 -100 53 -188 59 -196 9
-11 51 -12 51 -1 0 2 31 107 70 234 38 127 67 237 64 246 -8 20 -41 19 -52 -2
-5 -10 -30 -96 -57 -190 -27 -95 -51 -173 -54 -173 -3 0 -26 75 -50 168 -51
192 -55 202 -81 202 -19 0 -47 -37 -36 -47 3 -4 2 -11 -4 -17 -5 -7 -25 -75
-45 -151 -20 -77 -40 -143 -44 -148 -4 -4 -29 68 -55 160 -26 93 -52 178 -57
191 -9 25 -46 30 -55 8z"/>
<path d="M7956 1804 c-3 -8 -6 -119 -6 -244 0 -219 1 -230 20 -240 27 -14 316
-8 332 8 35 35 -29 52 -194 52 l-88 0 0 80 0 80 104 0 c87 0 105 3 110 16 13
34 -12 44 -115 44 l-99 0 0 80 0 79 143 3 142 3 0 25 0 25 -171 3 c-150 2
-172 0 -178 -14z"/>
<path d="M8410 1800 c-7 -13 -10 -98 -8 -241 2 -237 7 -261 49 -239 17 9 19
22 19 100 l0 90 48 0 49 0 61 -95 c45 -70 67 -95 82 -95 39 0 34 29 -20 117
l-53 86 28 20 c82 60 70 202 -21 254 -33 19 -54 23 -131 23 -82 0 -93 -2 -103
-20z m200 -55 c38 -20 57 -74 39 -117 -15 -38 -61 -58 -129 -58 l-50 0 0 95 0
95 55 0 c31 0 69 -7 85 -15z"/>
<path d="M8827 1813 c-4 -3 -7 -115 -7 -249 0 -214 2 -243 16 -248 37 -14 43
10 46 178 l3 161 80 -157 c44 -87 86 -160 94 -163 23 -9 38 12 118 173 l78
157 3 -164 c1 -92 7 -170 13 -177 5 -6 19 -10 30 -7 19 5 19 13 17 252 l-3
246 -23 3 c-20 3 -32 -17 -121 -199 l-99 -203 -101 202 c-76 152 -106 202
-119 202 -10 0 -22 -3 -25 -7z"/>
<path d="M9461 1806 c-9 -11 -12 -75 -9 -246 2 -192 6 -232 18 -240 16 -11
281 -13 318 -4 26 7 31 48 6 58 -9 3 -74 6 -145 6 l-129 0 0 80 0 79 108 3
c107 3 107 3 107 28 0 25 0 25 -107 28 l-108 3 0 79 0 79 143 3 142 3 0 25 0
25 -166 3 c-136 2 -168 0 -178 -12z"/>
<path d="M9917 1814 c-4 -4 -7 -114 -7 -245 0 -219 1 -239 18 -248 42 -22 47
-3 47 189 0 99 3 179 7 177 4 -1 66 -81 138 -177 73 -96 139 -180 147 -187 11
-9 21 -9 34 -2 18 9 19 26 19 242 0 241 -3 257 -42 257 -10 0 -19 -1 -20 -2
-1 -2 -4 -87 -7 -190 l-6 -187 -141 187 c-131 175 -165 208 -187 186z"/>
<path d="M10396 1805 c-14 -36 3 -45 89 -45 l84 0 1 -217 c1 -225 4 -242 42
-222 16 9 18 28 18 224 l0 214 83 3 c80 3 82 4 82 28 l0 25 -196 3 c-169 2
-198 0 -203 -13z"/>
</g>
</svg>
