<?xml version="1.0" standalone="no"?>
<!DOCTYPE svg PUBLIC "-//W3C//DTD SVG 20010904//EN"
 "http://www.w3.org/TR/2001/REC-SVG-20010904/DTD/svg10.dtd">
<svg version="1.0" xmlns="http://www.w3.org/2000/svg"
 width="382.000000pt" height="347.000000pt" viewBox="0 0 382.000000 347.000000"
 preserveAspectRatio="xMidYMid meet">
<metadata>
Created by potrace 1.15, written by Peter Selinger 2001-2017
</metadata>
<g transform="translate(0.000000,347.000000) scale(0.100000,-0.100000)"
fill="#000000" stroke="none">
<path d="M0 1735 l0 -1735 1910 0 1910 0 0 1735 0 1735 -1910 0 -1910 0 0
-1735z m1577 1471 c-50 -100 -97 -178 -141 -232 -64 -80 -201 -202 -213 -191
-9 10 16 154 42 234 45 144 135 243 289 318 57 28 92 41 95 33 2 -6 -30 -79
-72 -162z m-471 87 c-18 -203 -67 -364 -151 -499 -57 -91 -60 -89 -77 55 -23
194 19 319 148 448 40 40 76 73 80 73 4 0 4 -35 0 -77z m1042 -179 c-179 -151
-602 -453 -616 -440 -8 9 31 123 66 191 94 178 283 282 520 284 l74 1 -44 -36z
m-1537 -112 c33 -95 34 -101 34 -264 0 -91 -4 -170 -8 -175 -12 -11 -90 81
-128 151 -55 103 -50 205 19 360 31 71 35 68 83 -72z m1923 -240 c47 -16 118
-49 158 -73 l73 -44 -160 -7 c-208 -8 -352 -24 -500 -53 -107 -22 -256 -61
-309 -81 -19 -7 -19 -7 0 25 58 100 255 226 399 256 106 22 234 13 339 -23z
m-2238 -176 c45 -46 75 -89 117 -173 31 -61 57 -117 57 -123 0 -30 -158 39
-200 86 -34 40 -65 132 -75 228 l-8 68 24 -13 c13 -7 51 -40 85 -73z m1069 59
c33 -8 98 -34 145 -57 120 -58 247 -186 308 -308 23 -47 48 -110 56 -140 16
-64 26 -55 -109 -95 -49 -15 -134 -47 -190 -72 -254 -114 -454 -163 -707 -170
l-178 -5 0 34 c0 56 37 184 72 251 20 38 64 94 113 143 125 127 258 183 438
185 71 1 77 2 47 11 -19 5 -82 10 -140 10 -213 3 -401 -84 -543 -251 -60 -70
-123 -192 -146 -282 -10 -40 -21 -67 -25 -61 -3 6 -11 45 -16 86 -43 344 211
671 572 736 70 12 228 5 303 -15z m1213 -278 c40 -14 101 -44 135 -66 65 -42
215 -186 205 -196 -3 -4 -44 5 -89 19 -234 71 -481 113 -723 123 l-159 6 29
24 c45 37 167 93 236 108 101 23 275 15 366 -18z m-2408 -157 c32 -16 74 -43
93 -60 33 -29 143 -178 136 -184 -10 -9 -158 17 -189 32 -21 10 -44 33 -57 57
-27 50 -65 185 -52 185 5 0 36 -13 69 -30z m2370 -174 c257 -59 457 -168 607
-329 96 -103 103 -127 25 -88 -112 56 -317 101 -461 101 -182 0 -330 -33 -696
-155 -371 -123 -539 -157 -795 -157 -375 0 -658 97 -911 313 -94 80 -210 191
-205 196 2 2 49 -15 104 -37 119 -47 238 -82 360 -107 133 -27 481 -25 612 4
138 31 276 77 434 145 148 63 262 99 391 123 104 19 439 14 535 -9z m375 -461
c287 -47 522 -155 684 -316 63 -63 146 -179 127 -179 -3 0 -34 18 -68 41 -71
46 -278 149 -299 149 -8 0 21 -19 63 -43 88 -47 208 -132 208 -145 0 -5 -20
-15 -46 -22 -50 -14 -48 -22 9 -40 20 -6 37 -15 37 -20 0 -14 -127 -101 -215
-147 -44 -23 -73 -43 -64 -43 21 0 215 95 303 149 37 23 70 40 72 38 10 -10
-80 -128 -142 -188 -83 -78 -133 -113 -239 -167 -186 -93 -373 -140 -596 -149
-248 -10 -403 20 -633 121 -144 64 -275 107 -417 137 -142 31 -434 33 -584 5
-124 -23 -293 -73 -405 -120 -46 -20 -85 -36 -86 -36 -6 0 43 115 74 175 45
85 144 189 225 234 l59 34 -51 28 c-121 66 -211 172 -276 327 -19 45 -32 82
-30 82 3 0 42 -15 87 -34 496 -204 941 -192 1440 38 95 43 193 74 295 91 108
18 358 18 468 0z m-935 -1183 c81 -59 79 -216 -2 -276 -18 -13 -44 -20 -75
-20 -105 -2 -154 49 -154 159 0 80 21 120 76 147 48 22 116 18 155 -10z
m-1676 -69 c11 -46 23 -83 26 -83 3 0 15 37 26 83 l19 82 53 3 52 3 0 -155 0
-156 -35 0 -35 0 -1 88 -1 87 -22 -85 c-22 -85 -22 -85 -56 -88 l-35 -3 -21
88 -22 88 -1 -87 -1 -88 -35 0 -35 0 0 156 0 155 52 -3 53 -3 19 -82z m433
-53 c74 -187 71 -170 25 -170 -36 0 -40 3 -48 33 -9 31 -12 32 -66 35 l-56 3
-12 -36 c-10 -31 -15 -35 -46 -35 -19 0 -34 4 -34 9 0 5 23 69 50 142 28 74
53 140 55 147 3 9 18 12 42 10 l37 -3 53 -135z m153 78 l1 -63 55 63 c53 58
59 62 100 62 24 0 44 -4 44 -8 0 -4 -22 -30 -50 -57 -27 -27 -50 -54 -50 -60
0 -6 15 -33 33 -60 18 -28 43 -67 56 -87 l23 -38 -46 0 -45 0 -36 65 c-20 36
-40 65 -45 65 -17 0 -40 -51 -40 -90 0 -39 -1 -40 -35 -40 l-35 0 0 155 0 155
35 0 35 0 0 -62z m460 32 l0 -30 -80 0 -80 0 0 -30 0 -30 70 0 70 0 0 -30 0
-30 -70 0 -70 0 0 -35 0 -35 80 0 80 0 0 -30 0 -30 -115 0 -115 0 0 155 0 155
115 0 115 0 0 -30z m370 0 l0 -30 -70 0 -70 0 0 -30 0 -30 60 0 60 0 0 -30 0
-30 -60 0 -60 0 0 -65 0 -65 -35 0 -35 0 0 155 0 155 105 0 105 0 0 -30z m573
10 c49 -38 42 -119 -11 -146 -16 -8 -20 -14 -12 -19 12 -7 80 -109 80 -120 0
-3 -18 -5 -40 -5 -37 0 -42 4 -79 59 -22 32 -49 61 -60 64 -20 5 -21 1 -21
-59 l0 -64 -35 0 -35 0 0 155 0 155 94 0 c78 0 97 -3 119 -20z m257 -135 l0
-155 -35 0 -35 0 0 155 0 155 35 0 35 0 0 -155z m172 65 l53 -91 3 91 3 90 29
0 30 0 0 -155 0 -155 -33 0 c-30 0 -36 6 -85 88 l-52 87 0 -87 0 -88 -35 0
-35 0 0 155 0 155 35 0 c33 0 37 -4 87 -90z m367 75 c38 -19 61 -71 61 -140 0
-69 -23 -121 -61 -140 -18 -10 -58 -15 -109 -15 l-80 0 0 155 0 155 80 0 c51
0 91 -5 109 -15z m171 -140 l0 -155 -35 0 -35 0 0 155 0 155 35 0 35 0 0 -155z
m263 7 c31 -82 57 -152 57 -155 0 -4 -16 -7 -35 -7 -30 0 -37 4 -49 35 -15 34
-17 35 -69 35 -52 0 -54 -1 -63 -32 -8 -29 -14 -33 -47 -36 -20 -2 -37 1 -37
5 0 5 13 42 28 83 16 41 41 108 56 148 27 71 28 72 64 72 l37 0 58 -148z"/>
<path d="M1130 2070 l0 -150 30 0 30 0 0 60 0 60 54 0 c77 0 106 25 106 90 0
72 -27 90 -136 90 l-84 0 0 -150z"/>
<path d="M1840 330 c-15 -15 -20 -33 -20 -73 0 -66 24 -97 74 -97 49 0 71 30
71 95 0 38 -5 59 -19 74 -25 27 -79 28 -106 1z"/>
<path d="M2970 255 l0 -95 35 0 c53 0 75 28 75 95 0 67 -22 95 -75 95 l-35 0
0 -95z"/>
</g>
</svg>
